<svg xmlns="http://www.w3.org/2000/svg" xmlns:xlink="http://www.w3.org/1999/xlink" width="232.933" height="151.491" viewBox="0 0 232.933 151.491"><defs><style>.a{fill:#ececec;}.b{fill:#d0d0d0;}.c{fill:#055d61;}.d{fill:#fe8f0d;}.e{fill:#fcc61a;}.f{fill:#ac7409;}.g{fill:#f28400;}.h{fill:#0a1d23;}.i{fill:#003948;}.j{fill:#088b91;}.k,.x{opacity:0.52;}.k{fill:url(#a);}.l{fill:#0ab9c1;}.m{fill:#008ac5;}.n{fill:#6cd5da;}.o{fill:#00648f;}.p{fill:#006894;}.q{fill:#006b99;}.r{fill:#0073a3;}.s{fill:#0076a8;}.t{fill:#007db3;}.u{fill:#fff;}.v{fill:#e0e0e0;}.w{opacity:0.22;fill:url(#b);}.x{fill:url(#c);}</style><linearGradient id="a" x1="0.674" y1="0.057" x2="0.326" y2="0.999" gradientUnits="objectBoundingBox"><stop offset="0.484" stop-color="#fff"/><stop offset="0.585" stop-color="#fbfbfb"/><stop offset="0.664" stop-color="#f2f2f2"/><stop offset="0.734" stop-color="#e1e1e1"/><stop offset="0.8" stop-color="#cacaca"/><stop offset="0.862" stop-color="#acacac"/><stop offset="0.923" stop-color="#878787"/><stop offset="0.98" stop-color="#5c5c5c"/><stop offset="1" stop-color="#4c4c4c"/></linearGradient><linearGradient id="b" y1="0.5" x2="1" y2="0.5" gradientUnits="objectBoundingBox"><stop offset="0" stop-color="#fff"/><stop offset="1" stop-color="#969696"/></linearGradient><linearGradient id="c" x1="0.601" y1="0.164" x2="0.281" y2="0.757" gradientUnits="objectBoundingBox"><stop offset="0" stop-color="#4c4c4c"/><stop offset="0.02" stop-color="#5c5c5c"/><stop offset="0.077" stop-color="#878787"/><stop offset="0.138" stop-color="#acacac"/><stop offset="0.2" stop-color="#cacaca"/><stop offset="0.266" stop-color="#e1e1e1"/><stop offset="0.336" stop-color="#f2f2f2"/><stop offset="0.415" stop-color="#fbfbfb"/><stop offset="0.516" stop-color="#fff"/></linearGradient></defs><g transform="translate(751 -1163.342)"><g transform="translate(-1010.915 915)"><g transform="translate(259.915 266.076)"><path class="a" d="M470.023,262.032,268.533,377.37l2.95,1.715L472.954,263.753Z" transform="translate(-251.375 -252.171)"/><path class="a" d="M467.187,260.355,265.667,375.714l2.821,1.64L469.992,262Z" transform="translate(-254.215 -253.833)"/><path class="a" d="M464.353,258.679,262.8,374.057l2.821,1.64L467.155,260.326Z" transform="translate(-257.056 -255.494)"/><path class="a" d="M461.8,257.079,259.915,372.3l2.858,1.661L464.34,258.575Z" transform="translate(-259.915 -257.079)"/><path class="a" d="M472.922,263.745,271.465,379.067l2.984,1.734L475.887,265.488Z" transform="translate(-248.47 -250.473)"/><path class="a" d="M274.413,380.772l3.012,1.75,201.056-115.5-2.643-1.552Z" transform="translate(-245.548 -248.765)"/><path class="b" d="M474.4,264.621,272.963,379.933l2.886,1.68,201.425-115.3Z" transform="translate(-246.985 -249.606)"/><path class="b" d="M471.486,262.9,270.015,378.228l2.886,1.68L474.358,264.586Z" transform="translate(-249.907 -251.314)"/><path class="b" d="M468.588,261.182l-201.5,115.353,2.886,1.678L471.46,262.874Z" transform="translate(-252.811 -253.013)"/><path class="b" d="M465.751,259.506,264.217,374.877l2.887,1.678L468.624,261.2Z" transform="translate(-255.652 -254.674)"/><path class="b" d="M462.917,257.83,261.351,373.218l2.886,1.68L465.79,259.52Z" transform="translate(-258.492 -256.335)"/></g><g transform="translate(274.793 248)"><path class="c" d="M365.883,286a12.84,12.84,0,0,0-.832-2.57c-.054-.121-.1-.247-.161-.366a9.37,9.37,0,0,0-1.276-1.957c-.084-.1-.173-.2-.259-.3a7.971,7.971,0,0,0-1.686-1.384,7.549,7.549,0,0,0-.908-.5,10.143,10.143,0,0,0-7.406.028,18.257,18.257,0,0,0-3.024,1.366l15.926,9.256a18.244,18.244,0,0,0-.321-3.267C365.915,286.215,365.9,286.1,365.883,286Z" transform="translate(-185.197 -218.023)"/><path class="c" d="M328.815,307.8a12.773,12.773,0,0,0-.84-2.618c-.05-.111-.094-.227-.147-.338a9.453,9.453,0,0,0-1.29-2c-.082-.094-.159-.189-.245-.283a7.938,7.938,0,0,0-1.7-1.394,6.872,6.872,0,0,0-.836-.47c-2.811-1.26-6.5-.876-10.556,1.418l15.969,9.278a18.231,18.231,0,0,0-.313-3.311C328.843,307.99,328.835,307.891,328.815,307.8Z" transform="translate(-221.987 -196.481)"/><g transform="translate(71.125 101.593)"><path class="d" d="M310.958,331.756c-.034-.137-.076-.265-.106-.406-.068-.34-.111-.7-.155-1.065-.012-.12-.038-.227-.05-.348-.022-.207-.022-.434-.034-.649-.016-.293-.042-.577-.042-.888,0-.092.01-.185.012-.275.006-.4.02-.8.05-1.206v0c0-.036.006-.074.01-.106s.008-.082.01-.119c.02-.159.036-.315.052-.474.026-.245.054-.492.09-.737v-.006c.006-.034.016-.07.02-.107.054-.37.129-.741.2-1.115.01-.052.016-.1.028-.155.026-.129.05-.255.078-.388.082-.364.177-.731.275-1.093.04-.149.07-.295.112-.442.012-.046.022-.094.036-.141h0l.05-.163c.018-.06.034-.12.054-.179s.044-.143.068-.219v-.006q.17-.538.36-1.069l.092-.255a.276.276,0,0,1,.016-.044c.018-.044.03-.092.048-.135l0,0c.183-.5.38-.988.6-1.475h0c.026-.064.056-.121.082-.181l0-.008c.03-.072.066-.137.1-.205.07-.157.143-.311.215-.462.018-.04.042-.076.062-.112.43-.908.9-1.8,1.424-2.672.016-.028.03-.062.046-.09.2-.327.394-.655.6-.976l.008-.008c.016-.026.034-.048.048-.07.374-.575.768-1.129,1.173-1.672.022-.03.042-.058.062-.088l.008-.01c.084-.112.169-.217.253-.325.048-.062.1-.117.147-.179.277-.35.555-.693.842-1.029.036-.04.068-.084.1-.121.1-.112.193-.221.291-.332l.01-.012c.044-.048.094-.094.135-.145.2-.217.4-.428.6-.639.05-.046.1-.1.145-.151l.006-.006c.189-.2.378-.386.575-.575h0c.044-.042.09-.082.135-.123s.113-.107.171-.161L320.2,308l.008-.008c.177-.161.358-.317.542-.474.048-.04.1-.076.145-.117.253-.213.508-.418.765-.619.054-.042.1-.086.157-.127.155-.116.307-.235.458-.344l.014-.008c.034-.028.07-.048.106-.074.36-.257.731-.492,1.1-.723.155-.1.309-.213.464-.3.358-.207.709-.384,1.057-.549l.135-.062c.123-.06.243-.115.364-.169.044-.018.088-.042.133-.06h0c.03-.014.062-.026.094-.04.062-.024.117-.038.179-.064.376-.155.751-.291,1.117-.406a.766.766,0,0,0,.088-.032h0l.006,0c.08-.024.153-.036.229-.056.277-.078.552-.149.816-.2.169-.034.333-.052.5-.078.207-.03.418-.068.621-.084.026,0,.05-.008.074-.01l.024,0c.141-.012.277,0,.418-.008.205-.006.412-.018.613-.008h.028c.161.012.315.04.472.06l.233.038c.137.02.275.036.408.06l.068.012.042.012c.1.022.189.052.285.08.125.036.247.074.372.113.072.024.147.042.217.066.02.008.044.012.062.02l.036.014c.119.048.233.112.348.167a5.436,5.436,0,0,1,.51.241l.022.01-7.458-4.334c-.024-.016-.05-.03-.076-.044a6.967,6.967,0,0,0-.671-.329c-.048-.02-.092-.032-.137-.05-.076-.028-.149-.052-.225-.078-.117-.042-.231-.088-.35-.123s-.257-.058-.384-.088c-.082-.02-.161-.042-.243-.058-.044-.008-.084-.02-.125-.028a7.28,7.28,0,0,0-.814-.1H323c-.068,0-.135,0-.2,0-.209-.006-.418-.014-.635,0-.074,0-.151.016-.225.02-.131.01-.269.026-.4.042s-.249.018-.376.04l.028.014A10.88,10.88,0,0,0,320,299.4l-.024-.012c-.1.026-.2.072-.3.1q-.469.146-.95.331c-.112.042-.221.066-.336.113-.062.026-.129.07-.2.1a17.511,17.511,0,0,0-1.688.84c-.434.253-.86.528-1.282.816-.114.078-.223.161-.336.243l-.036.028-.028.02c-.289.207-.573.42-.854.643-.149.12-.3.247-.452.37-.259.219-.516.442-.767.673-.151.139-.3.273-.446.416-.1.09-.191.177-.287.269s-.193.211-.295.311c-.3.309-.6.621-.886.946-.094.105-.193.2-.287.307-.078.09-.149.185-.229.277-.175.207-.346.42-.518.631-.114.141-.235.279-.346.42-.088.118-.173.237-.261.358-.127.169-.255.34-.38.516-.084.114-.171.223-.253.339-.137.2-.267.4-.4.6-.09.133-.183.263-.269.4-.036.054-.072.1-.108.159l-.042.068c-.225.35-.444.709-.653,1.069-.014.024-.028.052-.042.076-.044.08-.09.157-.133.239-.088.153-.171.307-.257.46-.066.119-.133.237-.2.358s-.129.259-.2.386-.135.267-.2.4c-.058.115-.121.233-.179.352-.145.3-.283.609-.416.916-.032.074-.07.143-.1.217l-.018.034c-.173.4-.34.8-.494,1.2-.026.074-.05.145-.078.219-.056.151-.109.3-.163.458l-.008.022c-.068.193-.143.38-.2.569-.054.155-.094.313-.145.466s-.092.295-.133.444c-.012.04-.026.08-.038.121-.034.111-.074.229-.1.34-.056.205-.1.406-.149.611-.06.231-.119.462-.171.693-.018.082-.042.159-.058.235-.036.165-.052.324-.082.488-.07.364-.137.721-.187,1.081-.014.1-.04.2-.052.3-.008.072-.014.143-.02.215-.014.149-.032.3-.046.44-.014.163-.034.328-.046.49-.006.107-.006.211-.014.319-.024.388-.046.78-.046,1.165a15.355,15.355,0,0,0,.237,2.652c.068.384.157.749.253,1.1a8.851,8.851,0,0,0,1.686,3.373,6.634,6.634,0,0,0,1.748,1.5l7.46,4.336c-.171-.1-.323-.223-.484-.336-.117-.084-.243-.155-.356-.247-.161-.135-.307-.287-.456-.436-.106-.105-.219-.2-.319-.311-.143-.161-.269-.346-.4-.524-.092-.121-.189-.231-.273-.358-.127-.2-.233-.416-.348-.627-.072-.133-.153-.255-.219-.4-.112-.235-.2-.5-.3-.751-.018-.052-.04-.1-.06-.151-.034-.082-.07-.163-.1-.253C311.1,332.359,311.03,332.052,310.958,331.756Z" transform="translate(-303.112 -299.028)"/><path class="e" d="M328.839,301.649c-.07-.024-.145-.042-.217-.066a7.367,7.367,0,0,0-.766-.217c-.133-.024-.271-.04-.408-.06a7.872,7.872,0,0,0-1.862-.07c-.2.016-.414.054-.621.084-.163.024-.326.044-.5.078-.265.054-.539.125-.816.2-.109.03-.215.056-.325.09-.366.116-.741.251-1.117.406-.137.056-.271.1-.408.163-.121.054-.241.109-.364.169-.39.185-.784.384-1.183.615-.161.092-.315.2-.474.3-.37.231-.741.466-1.1.723q-.37.272-.735.554c-.257.2-.512.406-.765.619-.279.235-.557.474-.828.725-.058.054-.116.106-.171.161-.295.275-.579.565-.862.856-.2.211-.4.422-.6.639-.179.2-.362.406-.539.611-.287.336-.565.679-.842,1.029-.157.2-.317.4-.47.6-.4.544-.8,1.1-1.173,1.672-.243.372-.474.757-.7,1.143-.52.87-.993,1.764-1.424,2.672-.092.189-.183.374-.269.569-.3.667-.585,1.336-.836,2.013a.276.276,0,0,0-.016.044c-.189.516-.362,1.033-.52,1.549-.02.06-.036.119-.054.179-.076.249-.133.5-.2.747-.1.362-.193.729-.275,1.093-.028.131-.05.259-.076.388-.012.052-.018.1-.03.155-.072.374-.147.745-.2,1.115-.064.444-.121.886-.161,1.324,0,.038-.006.078-.01.119-.036.442-.048.876-.052,1.314,0,.092-.012.185-.012.279,0,.309.026.593.042.884a13.082,13.082,0,0,0,.669,3.6c1.8,5.1,6.831,6.624,12.768,3.2,7.418-4.281,13.415-14.671,13.391-23.193C333.719,305.947,331.816,302.77,328.839,301.649Zm-4.918,20.111a9.824,9.824,0,0,1-1.507,2.576,9.26,9.26,0,0,1-1.017,1.073l.01,2.493-1.079.621-.958.551-.008-2.455a2.445,2.445,0,0,1-2.091-.125,1.924,1.924,0,0,1-.822-.964,3.5,3.5,0,0,1-.295-1.467l2.479-1.432c.032.563.2.916.52,1.069a1.327,1.327,0,0,0,1.159-.167l.092-.054a3.326,3.326,0,0,0,1.208-1.232,3.175,3.175,0,0,0,.478-1.633c0-.637-.2-1.031-.587-1.195a2.534,2.534,0,0,0-1.2-.046c-.141.024-.283.036-.442.068-.283.062-.454.1-.518.113a4.249,4.249,0,0,1-1.069.05,1.776,1.776,0,0,1-1.212-.782,3.13,3.13,0,0,1-.45-1.728,6.186,6.186,0,0,1,.5-2.371,8.6,8.6,0,0,1,1.368-2.311,7.864,7.864,0,0,1,.856-.9l-.01.006-.01-2.525.96-.551,1.077-.623.008,2.513a2.808,2.808,0,0,1,.868-.105,1.711,1.711,0,0,1,1.356.7,3.357,3.357,0,0,1,.549,1.85l-2.441,1.408a1,1,0,0,0-.446-.868,1.021,1.021,0,0,0-.958.149l-.042.012a2.492,2.492,0,0,0-.916.956,2.739,2.739,0,0,0-.348,1.32.905.905,0,0,0,.356.848,1.8,1.8,0,0,0,.96.084,2.517,2.517,0,0,0,.3-.046l.545-.1a4,4,0,0,1,1.957-.006c.91.332,1.358,1.165,1.362,2.523A7.484,7.484,0,0,1,323.921,321.76Z" transform="translate(-299.395 -296.864)"/><path class="f" d="M318.472,313.251a4,4,0,0,0-1.957.006l-.545.1a2.517,2.517,0,0,1-.3.046,1.8,1.8,0,0,1-.96-.084.905.905,0,0,1-.356-.848,2.739,2.739,0,0,1,.348-1.32,2.492,2.492,0,0,1,.916-.956l.042-.012a1.021,1.021,0,0,1,.958-.149,1,1,0,0,1,.446.868l2.441-1.408a3.357,3.357,0,0,0-.549-1.85,1.711,1.711,0,0,0-1.356-.7,2.808,2.808,0,0,0-.868.105l-.008-2.513-1.077.623-.96.551.01,2.525.01-.006a7.864,7.864,0,0,0-.856.9,8.6,8.6,0,0,0-1.368,2.311,6.186,6.186,0,0,0-.5,2.371,3.13,3.13,0,0,0,.45,1.728,1.776,1.776,0,0,0,1.212.782,4.249,4.249,0,0,0,1.069-.05c.064-.01.235-.052.518-.113.159-.032.3-.044.442-.068a2.534,2.534,0,0,1,1.2.046c.384.163.585.557.587,1.195a3.175,3.175,0,0,1-.478,1.633,3.326,3.326,0,0,1-1.208,1.232l-.092.054a1.327,1.327,0,0,1-1.159.167c-.317-.153-.488-.506-.52-1.069l-2.479,1.432a3.5,3.5,0,0,0,.295,1.467,1.924,1.924,0,0,0,.822.964,2.445,2.445,0,0,0,2.091.125l.008,2.455.958-.551,1.079-.621-.01-2.493a9.26,9.26,0,0,0,1.017-1.073,9.824,9.824,0,0,0,1.507-2.576,7.484,7.484,0,0,0,.538-2.7C319.83,314.416,319.382,313.584,318.472,313.251Z" transform="translate(-294.77 -293.576)"/></g><g transform="translate(144.71 57.985)"><path class="d" d="M347.918,309.855c-.032-.139-.074-.267-.1-.406-.068-.34-.114-.7-.157-1.067-.012-.117-.04-.225-.048-.348-.022-.205-.022-.432-.034-.647-.016-.295-.042-.579-.042-.89,0-.09.01-.183.012-.275,0-.4.018-.8.05-1.207v0c0-.036.006-.072.008-.108s.01-.08.012-.119c.02-.155.036-.313.052-.47.026-.247.054-.494.09-.739v0c.006-.036.016-.072.02-.107.054-.37.129-.743.2-1.115.008-.052.016-.1.028-.157.026-.127.048-.255.078-.386.08-.364.177-.731.275-1.1.04-.149.068-.3.112-.44.012-.048.022-.094.036-.143h0l.048-.163c.02-.058.036-.119.054-.177s.046-.145.068-.219v-.008c.115-.356.235-.713.362-1.067l.092-.255.016-.044c.016-.046.03-.092.046-.135l0-.006c.183-.5.38-.985.593-1.473h0c.026-.064.058-.121.082-.183l.006-.006c.03-.074.066-.137.1-.207.07-.155.141-.309.215-.462.018-.038.042-.074.06-.112.432-.91.906-1.8,1.424-2.672.016-.03.03-.06.048-.088.2-.327.394-.657.6-.976l.006-.01c.016-.026.036-.046.05-.07.372-.573.766-1.129,1.171-1.67.024-.03.042-.058.064-.09l.006-.008c.086-.113.171-.217.255-.325.05-.064.1-.119.147-.179q.412-.526.842-1.029c.036-.04.068-.084.1-.123.1-.113.193-.219.291-.334l.01-.01c.044-.048.094-.094.135-.143q.3-.326.6-.639c.05-.05.1-.1.145-.151l.006-.008c.189-.193.378-.384.573-.573h0c.046-.046.092-.082.133-.123.058-.058.118-.108.175-.161l.133-.127.006-.006c.179-.161.362-.319.542-.474.05-.042.1-.078.147-.119.253-.211.506-.416.763-.617.054-.042.105-.088.159-.129.153-.114.307-.233.458-.342l.014-.01c.032-.028.07-.046.106-.072.36-.257.729-.5,1.1-.723.155-.1.307-.215.464-.3.356-.205.709-.382,1.057-.547l.135-.064c.123-.058.243-.114.362-.167.046-.018.09-.042.133-.062h0l.094-.04c.064-.022.12-.038.181-.062.374-.157.749-.293,1.117-.406.028-.008.058-.024.086-.034h0l.006,0c.082-.022.153-.034.231-.056.275-.078.549-.149.816-.2.167-.032.333-.052.5-.078.209-.03.416-.066.619-.084a.458.458,0,0,0,.076-.012l.024,0c.141-.008.277,0,.414-.006.207-.006.416-.018.617-.008h.024c.163.01.319.04.474.062.08.012.157.026.233.038.135.018.277.034.408.06l.07.012a.306.306,0,0,1,.042.008c.1.024.189.054.285.082.125.034.247.076.372.115.07.024.147.042.217.066l.064.018.032.014c.121.05.233.112.35.169a4.9,4.9,0,0,1,.508.239l.024.012-7.46-4.334a.453.453,0,0,0-.074-.046,6.994,6.994,0,0,0-.673-.328c-.046-.018-.09-.032-.137-.048-.074-.03-.149-.052-.223-.078-.117-.042-.231-.09-.352-.123s-.255-.062-.382-.09c-.082-.018-.161-.042-.243-.056-.042-.01-.084-.022-.129-.03a6.674,6.674,0,0,0-.81-.094h-.052c-.068,0-.135,0-.2,0-.211-.01-.418-.016-.635-.006-.076,0-.151.018-.227.022-.129.01-.267.024-.4.042s-.251.016-.376.038l.028.016a10.333,10.333,0,0,0-1.187.247l-.024-.012c-.1.026-.2.074-.3.1-.313.094-.631.2-.95.328-.112.04-.221.066-.336.116-.062.026-.129.07-.2.1a16.624,16.624,0,0,0-1.69.84c-.434.251-.858.526-1.28.816-.115.076-.225.161-.336.243a.172.172,0,0,0-.038.028l-.028.018c-.287.207-.571.42-.854.645-.149.117-.3.247-.45.37-.259.219-.516.44-.769.671-.151.141-.3.275-.444.416-.094.092-.191.177-.287.269s-.2.213-.295.313c-.3.3-.6.621-.888.946-.092.1-.193.2-.287.3-.076.092-.149.187-.227.277-.175.209-.346.422-.52.633-.111.139-.233.275-.344.42-.09.117-.173.235-.261.354-.129.171-.255.342-.38.518-.082.115-.171.225-.253.338-.137.2-.269.4-.4.6-.09.135-.181.267-.269.4-.036.052-.074.1-.108.159l-.042.07q-.337.526-.655,1.069l-.042.074c-.044.078-.088.159-.131.241-.09.151-.171.3-.257.46-.066.119-.133.235-.2.356s-.129.259-.2.388-.135.263-.2.4c-.06.117-.121.233-.177.352-.147.3-.285.609-.418.918-.034.072-.07.141-.1.217l-.016.032c-.175.4-.341.8-.494,1.206-.026.072-.05.145-.078.217-.056.151-.109.307-.163.46l-.01.02c-.068.193-.141.382-.2.571-.054.155-.094.313-.143.466s-.092.293-.133.442c-.012.04-.026.08-.038.121-.034.113-.074.229-.106.342-.056.2-.1.406-.149.611-.058.231-.117.462-.169.693-.02.082-.042.157-.058.235-.036.163-.054.325-.084.488-.07.362-.137.721-.185,1.081-.014.1-.04.2-.052.293-.01.076-.014.147-.022.217-.014.149-.03.3-.044.442-.014.163-.036.328-.046.49-.008.108-.008.209-.014.317-.024.39-.048.782-.048,1.163a15.591,15.591,0,0,0,.239,2.656c.068.384.155.749.251,1.105a8.9,8.9,0,0,0,1.688,3.373,6.618,6.618,0,0,0,1.746,1.5l7.46,4.336c-.167-.1-.323-.221-.482-.335-.117-.086-.243-.157-.358-.251-.161-.133-.3-.287-.454-.434-.106-.1-.219-.2-.321-.311-.141-.159-.269-.344-.4-.522-.092-.121-.189-.231-.273-.362-.129-.193-.235-.412-.348-.625-.072-.133-.153-.255-.219-.4-.111-.235-.2-.5-.3-.751-.018-.052-.04-.1-.062-.153-.032-.082-.068-.163-.1-.251C348.06,310.456,347.992,310.151,347.918,309.855Z" transform="translate(-340.072 -277.124)"/><path class="e" d="M365.8,279.747c-.07-.024-.147-.042-.217-.066a6.436,6.436,0,0,0-.768-.217c-.131-.026-.273-.042-.408-.06a7.971,7.971,0,0,0-1.862-.072c-.2.018-.41.054-.619.084-.163.024-.328.046-.5.078-.267.054-.542.125-.816.2-.109.03-.215.056-.325.092-.368.114-.743.249-1.117.406-.139.056-.271.1-.41.163-.12.054-.239.109-.362.167-.39.187-.784.386-1.183.617-.161.09-.317.2-.474.3-.372.227-.741.466-1.1.723-.249.177-.494.366-.737.553s-.51.406-.763.617c-.279.237-.557.474-.828.727-.058.054-.117.1-.175.161-.291.275-.575.563-.858.856q-.3.314-.6.639c-.179.2-.36.406-.54.611q-.43.5-.842,1.029c-.159.2-.317.4-.472.6-.4.542-.8,1.1-1.171,1.67-.243.374-.474.759-.7,1.143-.518.868-.992,1.762-1.424,2.672-.092.189-.181.376-.269.569-.3.667-.585,1.338-.834,2.015l-.016.044c-.189.516-.362,1.033-.522,1.549-.018.058-.034.119-.054.177-.074.249-.131.5-.2.747-.1.364-.2.731-.275,1.1-.03.129-.05.259-.076.386-.012.052-.018.1-.03.157-.072.372-.147.745-.2,1.115-.066.444-.121.884-.161,1.32q0,.06-.012.119c-.034.444-.046.88-.05,1.316,0,.094-.012.187-.012.281,0,.307.024.591.042.884a12.983,12.983,0,0,0,.669,3.6c1.794,5.1,6.829,6.624,12.768,3.2,7.416-4.283,13.413-14.673,13.391-23.193C370.68,284.044,368.775,280.866,365.8,279.747Zm-4.918,20.111a9.941,9.941,0,0,1-1.507,2.576,9.607,9.607,0,0,1-1.017,1.073l.008,2.491-1.077.621-.96.553-.006-2.455a2.459,2.459,0,0,1-2.09-.125,1.916,1.916,0,0,1-.822-.968,3.492,3.492,0,0,1-.3-1.465l2.481-1.43c.03.563.2.914.518,1.069a1.326,1.326,0,0,0,1.161-.169l.09-.054a3.322,3.322,0,0,0,1.208-1.23,3.175,3.175,0,0,0,.48-1.635c0-.637-.2-1.031-.589-1.195a2.5,2.5,0,0,0-1.2-.046c-.141.026-.283.038-.444.07-.285.06-.452.1-.516.112a4.279,4.279,0,0,1-1.071.052,1.781,1.781,0,0,1-1.211-.784,3.132,3.132,0,0,1-.45-1.726,6.135,6.135,0,0,1,.5-2.375,8.6,8.6,0,0,1,1.364-2.307,7.9,7.9,0,0,1,.856-.9l-.012.008-.006-2.524.96-.554,1.077-.623.006,2.513a2.809,2.809,0,0,1,.868-.1,1.693,1.693,0,0,1,1.354.7,3.335,3.335,0,0,1,.554,1.85l-2.441,1.408a.992.992,0,0,0-.448-.868,1.012,1.012,0,0,0-.956.149l-.044.012a2.472,2.472,0,0,0-.914.956,2.733,2.733,0,0,0-.35,1.318.908.908,0,0,0,.358.85,1.775,1.775,0,0,0,.958.082,2.174,2.174,0,0,0,.3-.044l.546-.1a3.981,3.981,0,0,1,1.957-.006c.91.333,1.358,1.165,1.36,2.523A7.5,7.5,0,0,1,360.882,299.858Z" transform="translate(-336.354 -274.96)"/><path class="f" d="M355.434,291.35a3.981,3.981,0,0,0-1.957.006l-.546.1a2.174,2.174,0,0,1-.3.044,1.775,1.775,0,0,1-.958-.082.908.908,0,0,1-.358-.85,2.733,2.733,0,0,1,.35-1.318,2.472,2.472,0,0,1,.914-.956l.044-.012a1.012,1.012,0,0,1,.956-.149.992.992,0,0,1,.448.868l2.441-1.408a3.335,3.335,0,0,0-.554-1.85,1.693,1.693,0,0,0-1.354-.7,2.809,2.809,0,0,0-.868.1l-.006-2.513-1.077.623-.96.554.006,2.524.012-.008a7.9,7.9,0,0,0-.856.9,8.6,8.6,0,0,0-1.364,2.307,6.135,6.135,0,0,0-.5,2.375,3.132,3.132,0,0,0,.45,1.726,1.781,1.781,0,0,0,1.211.784,4.279,4.279,0,0,0,1.071-.052c.064-.01.231-.052.516-.112.161-.032.3-.044.444-.07a2.5,2.5,0,0,1,1.2.046c.386.163.587.557.589,1.195a3.175,3.175,0,0,1-.48,1.635,3.322,3.322,0,0,1-1.208,1.23l-.09.054a1.326,1.326,0,0,1-1.161.169c-.315-.155-.488-.506-.518-1.069l-2.481,1.43a3.492,3.492,0,0,0,.3,1.465,1.916,1.916,0,0,0,.822.968,2.459,2.459,0,0,0,2.09.125l.006,2.455.96-.553,1.077-.621-.008-2.491a9.607,9.607,0,0,0,1.017-1.073,9.941,9.941,0,0,0,1.507-2.576,7.5,7.5,0,0,0,.536-2.7C356.792,292.515,356.344,291.683,355.434,291.35Z" transform="translate(-331.73 -271.673)"/></g><path class="g" d="M289.349,302.194c-.032-.145-.072-.287-.109-.432-.1-.38-.217-.757-.283-1.139a2,2,0,0,1-.02-.265,12.627,12.627,0,0,0-.155,1.873c0,.382.056.76.092,1.143.02.227.04.452.064.679A13.3,13.3,0,0,1,289.349,302.194Z" transform="translate(-246.188 -196.116)"/><g transform="translate(34.812 47.49)"><path class="h" d="M291.961,285.549a2.61,2.61,0,0,1-.281-.428,2.326,2.326,0,0,1-.1-.273,3.747,3.747,0,0,1-.157-.478,3.836,3.836,0,0,1-.06-.386,4.57,4.57,0,0,1-.068-.7,6.807,6.807,0,0,1,.08-1.013c.008-.032.008-.064.014-.1a9.124,9.124,0,0,1,.223-.966c.022-.076.04-.151.064-.229.1-.321.221-.645.356-.96.028-.064.062-.127.092-.191.109-.243.235-.484.364-.721.092-.163.185-.325.287-.486q.167-.272.352-.538a8.658,8.658,0,0,1,.557-.711c.086-.1.165-.211.259-.311a8.744,8.744,0,0,1,.924-.882,6.95,6.95,0,0,1,.882-.607l-6.419-3.719a6.292,6.292,0,0,0-.854.583l-.028.024a8.214,8.214,0,0,0-.92.872c-.1.107-.185.225-.281.338-.2.229-.378.464-.554.713-.042.058-.09.1-.129.161-.07.108-.125.219-.193.329-.106.169-.207.336-.3.512-.038.068-.088.135-.127.207-.1.181-.173.366-.259.552l-.068.139c-.012.036-.034.068-.046.1-.1.233-.187.47-.267.711-.02.064-.036.131-.056.193s-.032.1-.046.149c-.028.108-.068.217-.1.331a5.929,5.929,0,0,0-.135.669l-.006.03-.006.022a6.078,6.078,0,0,0-.068.653,4.135,4.135,0,0,0-.016.418,3.632,3.632,0,0,0,.016.394,2.322,2.322,0,0,0,.054.313,2.839,2.839,0,0,0,.06.384,4.5,4.5,0,0,0,.145.462c.038.1.072.2.111.291a2.543,2.543,0,0,0,.271.412,1.434,1.434,0,0,0,.129.181,2.145,2.145,0,0,0,.516.426l6.421,3.721a2.073,2.073,0,0,1-.516-.43A1.412,1.412,0,0,1,291.961,285.549Z" transform="translate(-284.873 -271.853)"/><g transform="translate(6.421 3.719)"><path class="i" d="M292.552,273.721l.028,10.261c-2.463,1.423-4.476.287-4.482-2.552A9.812,9.812,0,0,1,292.552,273.721Z" transform="translate(-288.098 -273.721)"/></g></g><path class="j" d="M391.225,253.922c-.727-.177-14.588-3.552-19.629-4.834-.906-.239-1.74-.418-2.554-.571-.107-.022-.215-.04-.317-.06s-.229-.042-.338-.058c-.436-.07-.864-.119-1.284-.155-.151-.016-.3-.034-.448-.044-.076,0-.151-.016-.225-.02-.231-.012-.458-.008-.687-.008-.211,0-.416.006-.621.012-.1,0-.2,0-.289.008-.193.012-.39.034-.579.054-.169.02-.34.048-.508.074-.149.024-.3.038-.444.066-.209.04-.42.084-.629.133-.129.03-.259.072-.382.108-.147.04-.3.076-.446.123-.348.108-.7.225-1.055.364-.127.046-.257.1-.384.155-.1.042-.205.082-.309.125a22.1,22.1,0,0,0-2.361,1.181L314.918,275.44a26.9,26.9,0,0,0-2.692,1.794c-.167.123-.334.247-.5.374a29.883,29.883,0,0,0-2.381,2.083c-.05.048-.1.1-.149.149-.133.133-.269.271-.4.406-.446.454-.894.93-1.342,1.433l-.331.374c-.1.114-.193.221-.295.336-.546.639-1.1,1.31-1.66,2.033-.094.111-.175.213-.269.328-.028.04-.056.07-.086.109-.334.432-.685.908-1.031,1.372-.255.34-.5.661-.765,1.017-.613.844-1.248,1.736-1.915,2.686-5,7.076-18.812,26.428-19.539,27.445l55.707,32.49c.725-1.017,14.542-20.369,19.537-27.447.673-.96,1.316-1.858,1.937-2.7.165-.231.321-.43.49-.653.44-.6.882-1.195,1.3-1.742.024-.028.044-.06.068-.086.072-.1.139-.171.213-.263q.875-1.117,1.72-2.1c.09-.106.185-.237.277-.34.119-.133.231-.241.346-.37.444-.5.892-.974,1.336-1.426.133-.131.261-.291.394-.42.052-.052.108-.09.163-.143a29.855,29.855,0,0,1,2.381-2.083c.163-.125.336-.247.5-.37a27.836,27.836,0,0,1,2.7-1.8l42.815-24.863a22.35,22.35,0,0,1,2.353-1.179c.094-.04.2-.107.289-.145.143-.062.279-.092.422-.145.352-.131.7-.253,1.037-.356.137-.042.285-.108.422-.145s.273-.056.412-.088c.213-.05.43-.1.645-.135.129-.024.259-.064.392-.082.175-.028.352-.032.53-.052.2-.024.4-.046.6-.06.088,0,.171-.022.255-.024.217-.012.438.008.653.008s.458-.006.687.006c.064,0,.129,0,.2,0,.157.01.325.044.482.058.416.04.846.09,1.28.159.1.016.193.02.3.036s.243.058.354.078c.814.155,1.653.336,2.56.575,5.039,1.282,18.9,4.657,19.629,4.834Zm-32.89,58.012c-.719.824-1.453,1.736-2.21,2.706-1.185,1.527-2.427,3.223-3.8,5.18-2.527,3.582-7.315,10.309-11.522,16.21l-45.776-26.718c4.2-5.9,8.993-12.629,11.524-16.21,1.376-1.955,2.618-3.653,3.8-5.18.755-.97,1.489-1.881,2.21-2.706.03-.04.066-.082.1-.121,16.913,9.827,28.861,16.889,45.774,26.718C358.4,311.853,358.371,311.895,358.335,311.934Z" transform="translate(-253.346 -247.83)"/><path class="k" d="M391.225,253.929c-.727-.177-14.588-3.55-19.629-4.832-.906-.241-1.74-.42-2.554-.573-.107-.022-.215-.038-.317-.056s-.229-.042-.338-.06c-.436-.072-.864-.117-1.284-.157-.151-.014-.3-.032-.448-.04-.076-.006-.151-.016-.225-.022-.231-.012-.458-.006-.687-.006-.211,0-.416,0-.621.012-.1,0-.2,0-.289,0-.193.012-.39.036-.579.056-.169.018-.34.05-.508.074-.149.022-.3.036-.444.066-.209.038-.42.082-.629.133-.129.03-.259.072-.382.108-.147.04-.3.078-.446.121-.348.108-.7.227-1.055.364-.127.048-.257.105-.384.155-.1.046-.205.082-.309.127a22.141,22.141,0,0,0-2.361,1.183l-42.817,24.863a27.576,27.576,0,0,0-2.692,1.792c-.167.125-.334.247-.5.378a29.452,29.452,0,0,0-2.381,2.081c-.05.048-.1.1-.149.149l-.4.4q-.669.684-1.342,1.435l-.331.374-.295.336q-.818.956-1.66,2.031c-.094.114-.175.215-.269.331-.028.038-.056.07-.086.11-.334.43-.685.908-1.031,1.37-.255.344-.5.661-.765,1.019-.613.846-1.248,1.734-1.915,2.684-5,7.08-18.812,26.43-19.539,27.449l55.707,32.486c.725-1.017,14.542-20.367,19.537-27.447.673-.956,1.316-1.856,1.937-2.7.165-.229.321-.43.49-.651.44-.6.882-1.195,1.3-1.74.024-.028.044-.062.068-.09.072-.094.139-.169.213-.261.583-.747,1.157-1.441,1.72-2.1.09-.107.185-.235.277-.342.119-.131.231-.239.346-.368.444-.5.892-.974,1.336-1.426.133-.133.261-.291.394-.418.052-.054.108-.094.163-.145a29.855,29.855,0,0,1,2.381-2.083c.163-.127.336-.245.5-.37a27.824,27.824,0,0,1,2.7-1.8l42.815-24.865A22.723,22.723,0,0,1,415.8,281.9c.094-.04.2-.107.289-.145.143-.062.279-.09.422-.143q.529-.2,1.037-.36c.137-.042.285-.108.422-.143s.273-.054.412-.088c.213-.052.43-.1.645-.135.129-.022.259-.062.392-.084.175-.028.352-.03.53-.052.2-.02.4-.046.6-.058.088,0,.171-.022.255-.026.217-.008.438.008.653.01s.458-.006.687.006c.064,0,.129,0,.2,0,.157.006.325.042.482.058.416.038.846.086,1.28.159.1.014.193.016.3.034s.243.056.354.08c.814.151,1.653.333,2.56.571,5.039,1.286,18.9,4.657,19.629,4.834Zm-32.89,58.012c-.719.826-1.453,1.736-2.21,2.708-1.185,1.525-2.427,3.223-3.8,5.18-2.527,3.582-7.315,10.307-11.522,16.21l-45.776-26.719c4.2-5.9,8.993-12.627,11.524-16.208,1.376-1.959,2.618-3.657,3.8-5.182.755-.972,1.489-1.881,2.21-2.708.03-.038.066-.082.1-.121,16.913,9.831,28.861,16.891,45.774,26.721C358.4,311.859,358.371,311.9,358.335,311.941Z" transform="translate(-253.346 -247.82)"/><path class="h" d="M351.733,293.435c-16.913-9.829-28.861-16.891-45.774-26.718-.036.04-.072.082-.1.121-.721.824-1.455,1.736-2.21,2.706-1.185,1.527-2.427,3.225-3.8,5.18-2.53,3.582-7.319,10.309-11.524,16.21L334.1,317.653c4.207-5.9,9-12.629,11.522-16.21,1.378-1.957,2.62-3.653,3.8-5.18.757-.97,1.491-1.881,2.21-2.706C351.669,293.517,351.7,293.475,351.733,293.435Z" transform="translate(-246.644 -229.452)"/><path class="j" d="M267.4,297.688l.04,13.578,55.707,32.488-.04-13.58Z" transform="translate(-267.378 -198.762)"/><path class="l" d="M408.607,264.83c-.217-.038-.436-.08-.651-.114-.434-.07-.864-.119-1.28-.159-.225-.02-.456-.048-.677-.06s-.46-.006-.687-.006c-.3,0-.607,0-.908.016-.2.014-.4.036-.6.06-.3.034-.613.076-.922.133-.215.04-.432.086-.645.135-.273.066-.555.149-.834.233-.338.1-.685.225-1.037.356-.231.09-.472.185-.711.291a22.35,22.35,0,0,0-2.353,1.179L354.49,291.758a27.836,27.836,0,0,0-2.7,1.8c-.165.123-.331.243-.5.37a29.855,29.855,0,0,0-2.381,2.083c-.187.181-.37.374-.557.563-.444.452-.892.928-1.336,1.426-.209.235-.418.468-.623.711q-.845.986-1.72,2.1c-.1.119-.185.225-.281.348-.422.547-.864,1.145-1.3,1.742-.169.223-.325.422-.49.653-.621.846-1.264,1.744-1.937,2.7-5,7.078-18.812,26.43-19.537,27.447l-23.179,14.331c-.04.022-.068.054-.106.078l54.474-32.4,33.848-19.69L430.8,270.255v-.016c-.731-.177-14.59-3.552-19.629-4.834C410.26,265.167,409.422,264.986,408.607,264.83Zm4.671,10.156-39.393,22.747-3.966,2.29-31.142,18.124s5.871-8.5,9.314-13.166c3.661-4.949,6-7.639,9.557-9.69l16.425-9.63,6.194-3.574,14.064-8.119c3.556-2.051,5.915-2.077,9.581-1.358C407.385,273.284,413.278,274.986,413.278,274.986Z" transform="translate(-237.209 -231.659)"/><path class="m" d="M312.384,302.245c-.623.494-1.208,1.075-1.806,1.635C311.171,303.312,311.763,302.749,312.384,302.245Z" transform="translate(-224.589 -194.246)"/><path class="l" d="M359.636,283.623a10.35,10.35,0,0,0-7.787.127,10.143,10.143,0,0,1,7.406-.028,7.549,7.549,0,0,1,.908.5,7.971,7.971,0,0,1,1.686,1.384c.086.1.175.193.259.3a9.37,9.37,0,0,1,1.276,1.957c.058.119.107.245.161.366a12.882,12.882,0,0,1,.832,2.57c.02.1.032.211.052.313a18.244,18.244,0,0,1,.321,3.267l12.6-7.275-.034-13.678Z" transform="translate(-183.691 -222.811)"/><path class="l" d="M319.691,309.967l-24.313,14.426v.1l.04,13.58,19.237-11.5c-.016-5.473,2.047-11.607,5.332-16.9a37.236,37.236,0,0,1,4.872-6.25A36.482,36.482,0,0,0,319.691,309.967Z" transform="translate(-239.651 -193.079)"/><path class="i" d="M373.956,270.138l-14.064,8.119-6.194,3.574-16.425,9.63c-3.552,2.051-5.9,4.74-9.557,9.69-3.442,4.671-9.314,13.166-9.314,13.166l31.142-18.124,3.966-2.29L392.9,271.158s-5.893-1.7-9.367-2.377C379.872,268.062,377.512,268.088,373.956,270.138Z" transform="translate(-216.835 -227.831)"/><path class="n" d="M415.6,289.6l17.68-10.2-.036-12.011-44.631,25.765-33.848,19.69-54.474,32.4a9.81,9.81,0,0,0-2.785,2.511l-.046.06a10.116,10.116,0,0,0-.784,1.3c-.032.072-.076.139-.11.207a11.489,11.489,0,0,0-.532,1.294c-.042.115-.072.223-.107.336-.1.328-.189.645-.255.942-.02.094-.046.181-.062.271l-.006.03c-.068.34-.121.661-.153.936l0,.008c-.01.068-.012.112-.02.175-.018.177-.03.321-.036.456-.006.038-.01.094-.012.128,0,.062-.008.1-.008.147,0,.129,0,.255,0,.287l.014,5.782L319.7,345.678a36.482,36.482,0,0,1,5.167-6.544c.249-.259.526-.464.782-.711.6-.559,1.183-1.141,1.806-1.635a24.9,24.9,0,0,1,3.239-2.266c.062-.036.121-.062.183-.1,4.058-2.294,7.745-2.678,10.556-1.418a6.872,6.872,0,0,1,.836.47,7.842,7.842,0,0,1,1.7,1.394c.086.094.163.189.245.283a9.453,9.453,0,0,1,1.29,2c.054.111.1.227.147.338a12.773,12.773,0,0,1,.84,2.618c.02.092.028.191.046.285a18.231,18.231,0,0,1,.313,3.311l41.669-24.757c0-5.509,2.087-11.631,5.417-16.951a32.033,32.033,0,0,1,10.632-10.779c.076-.046.153-.076.229-.121a18.257,18.257,0,0,1,3.024-1.366A10.35,10.35,0,0,1,415.6,289.6Z" transform="translate(-239.658 -228.789)"/><path class="c" d="M295.375,310.908c0,.143,0,.253,0,.287C295.371,311.163,295.371,311.037,295.375,310.908Z" transform="translate(-239.658 -185.661)"/><path class="c" d="M295.388,311c.006-.135.018-.279.036-.456-.022.221-.042.408-.046.563A.7.7,0,0,1,295.388,311Z" transform="translate(-239.651 -186.025)"/><path class="c" d="M295.411,310.48l0-.008a.352.352,0,0,1,0-.046A.475.475,0,0,0,295.411,310.48Z" transform="translate(-239.619 -186.139)"/><path class="c" d="M267.395,294.575c0,.038,0,.04,0,.07l.008-.127Z" transform="translate(-267.383 -201.904)"/><path class="j" d="M295.56,309.994l.006-.03c-.064.313-.113.609-.149.868C295.451,310.583,295.5,310.294,295.56,309.994Z" transform="translate(-239.613 -186.597)"/><path class="j" d="M267.529,293.591a.931.931,0,0,0-.016.1c0-.034.016-.07.02-.1Z" transform="translate(-267.264 -202.822)"/><path class="o" d="M267.561,293.518c-.01.048-.03.1-.04.145l0,0C267.535,293.62,267.551,293.568,267.561,293.518Z" transform="translate(-267.256 -202.894)"/><path class="o" d="M295.556,309.814c.022-.088.04-.169.064-.259C295.6,309.645,295.578,309.726,295.556,309.814Z" transform="translate(-239.475 -187.002)"/><path class="p" d="M267.735,292.917c-.026.08-.036.147-.062.221.022-.072.046-.141.07-.219Z" transform="translate(-267.106 -203.49)"/><path class="q" d="M295.725,309.187c.014-.046.03-.088.044-.129C295.755,309.1,295.739,309.142,295.725,309.187Z" transform="translate(-239.308 -187.495)"/><path class="q" d="M267.744,292.873a.573.573,0,0,0-.04.088l.008,0A.807.807,0,0,1,267.744,292.873Z" transform="translate(-267.075 -203.533)"/><path class="r" d="M295.961,308.564l-.01.022.01-.022Z" transform="translate(-239.084 -187.984)"/><path class="s" d="M295.963,308.559l-.007.009h0Z" transform="translate(-239.079 -187.989)"/><path class="s" d="M268.023,292.236c0,.012-.016.024-.018.038s-.006.016-.012.028c.028-.058.066-.117.1-.177C268.071,292.163,268.043,292.2,268.023,292.236Z" transform="translate(-266.788 -204.274)"/><path class="t" d="M323.957,324.227l-.014.022a.749.749,0,0,1,.048-.074L268.308,291.7l-.028.052Z" transform="translate(-266.504 -204.691)"/><path class="j" d="M294.7,282.934l-23.179,14.331a9.348,9.348,0,0,0-1.786,1.354c-.034.034-.06.07-.092.1-.175.173-.317.352-.474.53-.113.135-.253.263-.356.4-.056.074-.135.133-.191.209l-.032.044c-.03.04-.046.08-.074.121-.084.121-.143.245-.225.368l55.683,32.47c.076-.117.155-.239.239-.354.024-.038.052-.074.078-.109l.046-.06c.052-.072.1-.145.159-.213.11-.141.221-.279.341-.414.155-.177.317-.35.488-.52.03-.028.08-.052.109-.082a9.475,9.475,0,0,1,1.688-1.282c.038-.024.066-.056.106-.078l23.179-14.331Z" transform="translate(-266.49 -213.382)"/><path class="j" d="M269.164,291.731c-.165.261-.339.524-.474.784-.032.06-.07.12-.1.177a10.181,10.181,0,0,0-.536,1.312.807.807,0,0,0-.032.09c-.024.078-.048.147-.07.219-.1.34-.2.669-.263.976-.01.05-.026.1-.036.149,0,.03-.016.066-.02.1-.076.358-.129.7-.167.986,0,.056-.008.1-.014.151-.024.235-.042.442-.05.6l-.008.127v.022c0,.127-.01.249-.01.281l.02,5.883,55.707,32.486v-.1L323.1,330.2c0-.034,0-.143,0-.287,0-.05.006-.086.008-.147l0-.02c0-.155.024-.342.046-.563.008-.064.01-.107.02-.175a.475.475,0,0,1,.006-.054l.006-.052c.036-.259.086-.555.149-.868.016-.09.042-.177.062-.271s.04-.187.066-.285.04-.169.064-.259c.034-.127.084-.267.125-.4.036-.113.066-.221.107-.336.012-.042.024-.082.04-.125s.03-.088.044-.129c.119-.317.249-.637.406-.962l.01-.022.006-.01a.208.208,0,0,1,.026-.046c.034-.068.078-.135.11-.207.133-.251.265-.506.42-.759l.014-.022Z" transform="translate(-267.388 -204.665)"/><g transform="translate(0.019 94.423)"><g transform="translate(55.753 32.052)"><path class="u" d="M295.4,312.027c2.009-1.165,3.655-.233,3.661,2.088a8.022,8.022,0,0,1-3.637,6.305Z" transform="translate(-295.401 -311.525)"/></g><path class="v" d="M323.175,336.373l-55.754-32.559-.023-8.388,55.754,32.554Z" transform="translate(-267.398 -295.426)"/><g transform="translate(3.579 2.049)"><path class="i" d="M316.307,332.509l-47.074-27.523-.037-8.53,47.092,27.581Z" transform="translate(-269.196 -296.455)"/></g></g><path class="g" d="M362.747,277.866h0c.006,2.341,1.67,3.3,3.733,2.1l-.024-8.529A8.159,8.159,0,0,0,362.747,277.866Z" transform="translate(-172.892 -224.771)"/><g transform="translate(117.147 64.361)"><path class="j" d="M332.718,290.9c0-.717-.508-1.007-1.133-.649l-2.114,1.22-2.106,1.216a2.537,2.537,0,0,0-1.137,1.961v.01c.006.721.532,1,1.141.649l4.221-2.437a2.507,2.507,0,0,0,1.129-1.961Z" transform="translate(-326.228 -270.648)"/><path class="j" d="M349.36,281.134c0-.723-.51-1.011-1.137-.653l-4.2,2.427a2.5,2.5,0,0,0-1.135,1.965c0,.723.512,1.011,1.141.653l4.2-2.427A2.487,2.487,0,0,0,349.36,281.134Z" transform="translate(-309.72 -280.327)"/></g><path class="w" d="M433.282,282.267l-.036-12.011v-.016c-.731-.177-14.59-3.552-19.629-4.834-.908-.239-1.746-.42-2.56-.575-.215-.038-.436-.08-.651-.114-.434-.07-.864-.119-1.28-.159-.225-.02-.456-.048-.677-.06s-.46-.006-.687-.006c-.3,0-.607,0-.908.016-.2.014-.4.036-.6.06-.3.034-.613.076-.922.133-.215.04-.432.086-.645.135-.273.066-.555.149-.834.233-.338.1-.685.225-1.037.356-.231.09-.472.185-.711.291a23.071,23.071,0,0,0-2.353,1.175l-42.815,24.867a27.47,27.47,0,0,0-2.7,1.8c-.165.123-.331.243-.5.37a29.855,29.855,0,0,0-2.381,2.083c-.187.181-.37.374-.557.563-.444.452-.892.928-1.336,1.426-.209.235-.418.468-.623.711q-.845.986-1.72,2.1c-.1.119-.185.225-.281.348-.422.547-.864,1.145-1.3,1.742-.169.223-.325.422-.49.653-.621.846-1.264,1.744-1.937,2.7-5,7.078-18.812,26.43-19.537,27.447L300.4,348.032c-.04.022-.068.054-.106.078a9.81,9.81,0,0,0-2.785,2.511l-.046.06a10.116,10.116,0,0,0-.784,1.3c-.032.072-.076.139-.11.207a11.489,11.489,0,0,0-.532,1.294c-.042.115-.072.223-.107.336-.1.328-.189.643-.255.942-.02.094-.046.181-.062.271l-.006.03c-.068.34-.121.661-.153.936l0,.008c-.01.068-.01.112-.02.175-.018.177-.03.321-.036.456,0,.038-.01.094-.012.128,0,.062-.008.1-.008.147,0,.129,0,.255,0,.287l.014,5.782v.1l.04,13.58,19.237-11.5c-.014-5.473,2.047-11.607,5.336-16.9A37.109,37.109,0,0,1,324.865,342c.249-.257.526-.462.782-.709.6-.559,1.183-1.139,1.806-1.635a24.9,24.9,0,0,1,3.239-2.266c.062-.036.121-.062.183-.1,4.058-2.294,7.745-2.678,10.556-1.418a6.872,6.872,0,0,1,.836.47,7.842,7.842,0,0,1,1.7,1.394c.086.092.163.189.245.283a9.453,9.453,0,0,1,1.29,2c.054.111.1.227.147.338a12.773,12.773,0,0,1,.84,2.618c.02.092.028.191.046.285a18.231,18.231,0,0,1,.313,3.311l41.669-24.757c0-5.509,2.087-11.631,5.417-16.951a32.051,32.051,0,0,1,10.632-10.779c.076-.046.153-.076.229-.121a18.257,18.257,0,0,1,3.024-1.366,10.143,10.143,0,0,1,7.406-.028,7.549,7.549,0,0,1,.908.5,7.971,7.971,0,0,1,1.686,1.384c.086.1.175.193.259.3a9.37,9.37,0,0,1,1.276,1.957c.058.119.107.245.161.366a12.84,12.84,0,0,1,.832,2.57c.02.1.032.211.052.313a18.244,18.244,0,0,1,.321,3.267l12.6-7.275ZM350.54,304.98c3.661-4.949,6-7.639,9.557-9.69l16.425-9.63,6.194-3.574,14.064-8.119c3.556-2.051,5.915-2.077,9.581-1.358,3.474.675,9.367,2.377,9.367,2.377l-39.393,22.747-3.966,2.29-31.142,18.124S347.1,309.65,350.54,304.98Z" transform="translate(-239.658 -231.659)"/><path class="x" d="M295.6,282.934l-23.179,14.331a9.348,9.348,0,0,0-1.786,1.354c-.034.034-.06.07-.092.1-.175.173-.317.352-.474.53-.113.135-.253.263-.356.4-.056.072-.135.133-.191.209l-.032.044c-.03.04-.046.08-.074.121-.084.121-.556.92-.635,1.043l0,0c-.03.054-.07.107-.1.159s-.07.12-.1.177a10.824,10.824,0,0,0-.54,1.312c-.01.03-.018.06-.028.09-.024.078-.048.147-.07.219-.1.34-.2.669-.263.976-.01.05-.026.1-.036.149,0,.03-.016.066-.02.1-.076.358-.129.7-.167.986,0,.056-.008.1-.014.151-.024.235-.042.442-.05.6l-.008.127v.022c0,.127-.01.249-.01.281l.02,19.461,55.707,32.488-.014-19.459c0-.034,0-.143,0-.287,0-.05.006-.086.008-.147l0-.02c.006-.155.024-.342.046-.563.008-.064.01-.107.02-.175a.475.475,0,0,1,.006-.054l.006-.052c.036-.259.086-.555.149-.868.016-.09.042-.177.062-.271s.04-.187.066-.285.04-.169.064-.259c.034-.127.084-.267.125-.4.036-.113.066-.221.107-.336.012-.042.024-.082.04-.125s.03-.088.044-.129c.119-.317.249-.637.406-.962l.01-.022.006-.01a.208.208,0,0,1,.026-.046c.034-.068.078-.135.11-.207.078-.117.623-1.071.707-1.187.024-.038.052-.074.078-.109s.03-.04.046-.06c.052-.072.1-.145.159-.213.11-.141.221-.279.341-.414.155-.177.317-.35.488-.52.03-.028.08-.052.109-.082a9.475,9.475,0,0,1,1.688-1.282c.038-.024.066-.056.106-.078l23.179-14.331Z" transform="translate(-267.388 -213.382)"/><g transform="translate(97.256 84.124)"><path class="h" d="M323.327,303.947a2.2,2.2,0,0,1-.279-.424,2.5,2.5,0,0,1-.105-.273,3.046,3.046,0,0,1-.151-.482,3.19,3.19,0,0,1-.062-.384,4.587,4.587,0,0,1-.068-.7,6.778,6.778,0,0,1,.078-1.009c.006-.036.008-.066.012-.1a8.3,8.3,0,0,1,.225-.97c.02-.072.042-.151.068-.225a8.427,8.427,0,0,1,.354-.96c.026-.068.06-.128.092-.193.109-.243.233-.484.364-.719.088-.163.185-.325.283-.486.114-.181.229-.362.352-.54.175-.247.362-.478.557-.707.088-.1.171-.217.257-.315a9.355,9.355,0,0,1,.93-.878,6.343,6.343,0,0,1,.88-.611l-6.419-3.719a6.848,6.848,0,0,0-.852.581l-.028.028a8.039,8.039,0,0,0-.92.87c-.1.107-.189.227-.285.338-.193.231-.378.464-.553.715-.042.058-.086.1-.127.161-.07.106-.125.219-.2.329-.1.167-.207.332-.3.508-.034.072-.086.139-.123.211-.094.179-.173.364-.257.55a.9.9,0,0,0-.066.141c-.016.034-.036.068-.052.1-.1.231-.185.47-.263.711-.026.064-.038.131-.058.2s-.028.1-.048.147c-.028.11-.062.219-.1.331-.056.219-.1.444-.135.671l0,.028,0,.022a6.155,6.155,0,0,0-.074.651c-.014.141-.016.281-.016.418a3.645,3.645,0,0,0,.016.4c.01.113.036.207.052.311.022.135.036.267.064.386a4.087,4.087,0,0,0,.147.464c.036.1.072.2.112.289a2.906,2.906,0,0,0,.269.414,1.984,1.984,0,0,0,.127.181,2.188,2.188,0,0,0,.518.424l6.417,3.723a2.281,2.281,0,0,1-.514-.43A1.737,1.737,0,0,1,323.327,303.947Z" transform="translate(-316.237 -290.253)"/><g transform="translate(6.425 3.719)"><path class="i" d="M323.916,292.121l.032,10.263c-2.469,1.422-4.48.283-4.484-2.556A9.8,9.8,0,0,1,323.916,292.121Z" transform="translate(-319.464 -292.121)"/></g></g></g></g></g></svg>