<?xml version="1.0" encoding="UTF-8" standalone="no"?>
<svg
   xmlns:dc="http://purl.org/dc/elements/1.1/"
   xmlns:cc="http://creativecommons.org/ns#"
   xmlns:rdf="http://www.w3.org/1999/02/22-rdf-syntax-ns#"
   xmlns:svg="http://www.w3.org/2000/svg"
   xmlns="http://www.w3.org/2000/svg"
   xmlns:sodipodi="http://sodipodi.sourceforge.net/DTD/sodipodi-0.dtd"
   xmlns:inkscape="http://www.inkscape.org/namespaces/inkscape"
   width="29.54"
   height="34.548"
   viewBox="0 0 29.54 34.548"
   version="1.1"
   id="svg14"
   sodipodi:docname="avatar.svg"
   inkscape:version="0.92.1 r15371">
  <metadata
     id="metadata18">
    <rdf:RDF>
      <cc:Work
         rdf:about="">
        <dc:format>image/svg+xml</dc:format>
        <dc:type
           rdf:resource="http://purl.org/dc/dcmitype/StillImage" />
      </cc:Work>
    </rdf:RDF>
  </metadata>
  <sodipodi:namedview
     pagecolor="#ffffff"
     bordercolor="#666666"
     borderopacity="1"
     objecttolerance="10"
     gridtolerance="10"
     guidetolerance="10"
     inkscape:pageopacity="0"
     inkscape:pageshadow="2"
     inkscape:window-width="1920"
     inkscape:window-height="1016"
     id="namedview16"
     showgrid="false"
     inkscape:zoom="6.8310755"
     inkscape:cx="-13.922407"
     inkscape:cy="17.274"
     inkscape:window-x="0"
     inkscape:window-y="27"
     inkscape:window-maximized="1"
     inkscape:current-layer="g12" />
  <defs
     id="defs4">
    <style
       id="style2">.a{fill:#7d848f;stroke:#7d848f;}</style>
  </defs>
  <g
     transform="translate(-35.571 0.5)"
     id="g12"
     style="fill:#8c8c8c;fill-opacity:0.94117647;stroke:#8c8c8c;stroke-opacity:0.94117647">
    <g
       transform="translate(36.073)"
       id="g10"
       style="fill:#8c8c8c;fill-opacity:0.99122804;stroke:#8c8c8c;stroke-opacity:1">
      <path
         class="a"
         d="M144.211,18.076h.222a6.41,6.41,0,0,0,4.9-2.119c2.675-3.015,2.23-8.184,2.181-8.677-.174-3.7-1.924-5.474-3.369-6.3A7.724,7.724,0,0,0,144.405,0h-.118a7.736,7.736,0,0,0-3.738.952c-1.459.827-3.237,2.6-3.411,6.329-.049.493-.493,5.662,2.181,8.677A6.385,6.385,0,0,0,144.211,18.076ZM138.993,7.454c0-.021.007-.042.007-.056.229-4.981,3.765-5.516,5.28-5.516h.083c1.876.042,5.064.806,5.28,5.516a.135.135,0,0,0,.007.056c.007.049.493,4.773-1.716,7.26a4.553,4.553,0,0,1-3.578,1.487h-.069a4.538,4.538,0,0,1-3.571-1.487C138.514,12.241,138.986,7.5,138.993,7.454Z"
         transform="translate(-130.064)"
         id="path6"
         style="fill:#8c8c8c;fill-opacity:0.99122804;stroke:#8c8c8c;stroke-opacity:1" />
      <path
         class="a"
         d="M64.607,267.883v-.021c0-.056-.007-.111-.007-.174-.042-1.376-.132-4.592-3.147-5.62l-.069-.021a20.044,20.044,0,0,1-5.766-2.626.938.938,0,0,0-1.077,1.535,21.638,21.638,0,0,0,6.343,2.9c1.619.577,1.8,2.306,1.848,3.89a1.4,1.4,0,0,0,.007.174,12.61,12.61,0,0,1-.146,2.147,25.567,25.567,0,0,1-12.248,2.848,25.714,25.714,0,0,1-12.255-2.855,11.938,11.938,0,0,1-.146-2.147c0-.056.007-.111.007-.174.049-1.584.229-3.314,1.848-3.89a21.84,21.84,0,0,0,6.343-2.9.938.938,0,0,0-1.077-1.535,19.825,19.825,0,0,1-5.766,2.626c-.028.007-.049.014-.069.021-3.015,1.035-3.105,4.252-3.147,5.62a1.394,1.394,0,0,1-.007.174v.021a10.653,10.653,0,0,0,.354,3.147.891.891,0,0,0,.361.438c.208.139,5.2,3.321,13.561,3.321s13.352-3.189,13.561-3.321a.93.93,0,0,0,.361-.438A11.177,11.177,0,0,0,64.607,267.883Z"
         transform="translate(-36.073 -241.234)"
         id="path8"
         style="fill:#8c8c8c;fill-opacity:0.99122804;stroke:#8c8c8c;stroke-opacity:1" />
    </g>
  </g>
</svg>
