<?xml version="1.0" encoding="UTF-8" standalone="no"?>
<svg
   xmlns:dc="http://purl.org/dc/elements/1.1/"
   xmlns:cc="http://creativecommons.org/ns#"
   xmlns:rdf="http://www.w3.org/1999/02/22-rdf-syntax-ns#"
   xmlns:svg="http://www.w3.org/2000/svg"
   xmlns="http://www.w3.org/2000/svg"
   xmlns:sodipodi="http://sodipodi.sourceforge.net/DTD/sodipodi-0.dtd"
   xmlns:inkscape="http://www.inkscape.org/namespaces/inkscape"
   width="13.04"
   height="13.335"
   viewBox="0 0 13.04 13.335"
   version="1.1"
   id="svg28"
   sodipodi:docname="calendar.svg"
   inkscape:version="0.92.1 r15371">
  <metadata
     id="metadata32">
    <rdf:RDF>
      <cc:Work
         rdf:about="">
        <dc:format>image/svg+xml</dc:format>
        <dc:type
           rdf:resource="http://purl.org/dc/dcmitype/StillImage" />
        <dc:title></dc:title>
      </cc:Work>
    </rdf:RDF>
  </metadata>
  <sodipodi:namedview
     pagecolor="#ffffff"
     bordercolor="#666666"
     borderopacity="1"
     objecttolerance="10"
     gridtolerance="10"
     guidetolerance="10"
     inkscape:pageopacity="0"
     inkscape:pageshadow="2"
     inkscape:window-width="1920"
     inkscape:window-height="1016"
     id="namedview30"
     showgrid="false"
     inkscape:zoom="17.697788"
     inkscape:cx="6.52"
     inkscape:cy="6.6675"
     inkscape:window-x="0"
     inkscape:window-y="27"
     inkscape:window-maximized="1"
     inkscape:current-layer="svg28" />
  <defs
     id="defs4">
    <style
       id="style2">.a{fill:#aeb3bd;}</style>
  </defs>
  <g
     transform="translate(-5.411)"
     id="g26"
     style="fill:#8c8c8c;fill-opacity:1">
    <g
       transform="translate(5.411)"
       id="g24"
       style="fill:#8c8c8c;fill-opacity:1">
      <path
         class="a"
         d="M118.7,258.544a.3.3,0,0,0-.3-.3h-1.056a.3.3,0,0,0-.3.3V259.6a.3.3,0,0,0,.3.3h1.056a.3.3,0,0,0,.3-.3v-1.056Z"
         transform="translate(-113.986 -251.187)"
         id="path6"
         style="fill:#8c8c8c;fill-opacity:1" />
      <path
         class="a"
         d="M215.331,258.544a.3.3,0,0,0-.3-.3h-1.056a.3.3,0,0,0-.3.3V259.6a.3.3,0,0,0,.3.3h1.056a.3.3,0,0,0,.3-.3Z"
         transform="translate(-207.981 -251.187)"
         id="path8"
         style="fill:#8c8c8c;fill-opacity:1" />
      <path
         class="a"
         d="M311.959,258.544a.3.3,0,0,0-.3-.3H310.6a.3.3,0,0,0-.3.3V259.6a.3.3,0,0,0,.3.3h1.056a.3.3,0,0,0,.3-.3Z"
         transform="translate(-301.969 -251.187)"
         id="path10"
         style="fill:#8c8c8c;fill-opacity:1" />
      <path
         class="a"
         d="M118.7,355.178a.3.3,0,0,0-.3-.3h-1.056a.3.3,0,0,0-.3.3v1.056a.3.3,0,0,0,.3.3h1.056a.3.3,0,0,0,.3-.3v-1.056Z"
         transform="translate(-113.986 -345.181)"
         id="path12"
         style="fill:#8c8c8c;fill-opacity:1" />
      <path
         class="a"
         d="M215.331,355.178a.3.3,0,0,0-.3-.3h-1.056a.3.3,0,0,0-.3.3v1.056a.3.3,0,0,0,.3.3h1.056a.3.3,0,0,0,.3-.3Z"
         transform="translate(-207.981 -345.181)"
         id="path14"
         style="fill:#8c8c8c;fill-opacity:1" />
      <path
         class="a"
         d="M311.959,355.178a.3.3,0,0,0-.3-.3H310.6a.3.3,0,0,0-.3.3v1.056a.3.3,0,0,0,.3.3h1.056a.3.3,0,0,0,.3-.3v-1.056Z"
         transform="translate(-301.969 -345.181)"
         id="path16"
         style="fill:#8c8c8c;fill-opacity:1" />
      <path
         class="a"
         d="M17.29,54.148v1.613a1.318,1.318,0,0,1-1.32,1.317h-.833a1.324,1.324,0,0,1-1.328-1.317V54.142H10.053v1.619a1.324,1.324,0,0,1-1.328,1.317H7.892a1.317,1.317,0,0,1-1.32-1.317V54.148a1.2,1.2,0,0,0-1.161,1.194V64.8a1.2,1.2,0,0,0,1.2,1.2H17.255a1.2,1.2,0,0,0,1.2-1.2V55.342A1.2,1.2,0,0,0,17.29,54.148ZM16.9,64.207a.517.517,0,0,1-.517.517H7.453a.517.517,0,0,1-.517-.517V59.324a.517.517,0,0,1,.517-.517h8.934a.517.517,0,0,1,.517.517v4.883Z"
         transform="translate(-5.411 -52.663)"
         id="path18"
         style="fill:#8c8c8c;fill-opacity:1" />
      <path
         class="a"
         d="M80,3.55h.824A.453.453,0,0,0,81.28,3.1V.453A.453.453,0,0,0,80.827,0H80a.453.453,0,0,0-.453.453V3.1A.453.453,0,0,0,80,3.55Z"
         transform="translate(-77.525)"
         id="path20"
         style="fill:#8c8c8c;fill-opacity:1" />
      <path
         class="a"
         d="M344.911,3.55h.824a.453.453,0,0,0,.453-.453V.453A.453.453,0,0,0,345.735,0h-.824a.453.453,0,0,0-.453.453V3.1A.453.453,0,0,0,344.911,3.55Z"
         transform="translate(-335.196)"
         id="path22"
         style="fill:#8c8c8c;fill-opacity:1" />
    </g>
  </g>
</svg>
