<?xml version="1.0" encoding="UTF-8" standalone="no"?>
<svg
   xmlns:dc="http://purl.org/dc/elements/1.1/"
   xmlns:cc="http://creativecommons.org/ns#"
   xmlns:rdf="http://www.w3.org/1999/02/22-rdf-syntax-ns#"
   xmlns:svg="http://www.w3.org/2000/svg"
   xmlns="http://www.w3.org/2000/svg"
   xmlns:sodipodi="http://sodipodi.sourceforge.net/DTD/sodipodi-0.dtd"
   xmlns:inkscape="http://www.inkscape.org/namespaces/inkscape"
   width="41.241"
   height="41.241"
   viewBox="0 0 41.241 41.241"
   version="1.1"
   id="svg34"
   sodipodi:docname="carro.svg"
   inkscape:version="0.92.1 r15371">
  <metadata
     id="metadata38">
    <rdf:RDF>
      <cc:Work
         rdf:about="">
        <dc:format>image/svg+xml</dc:format>
        <dc:type
           rdf:resource="http://purl.org/dc/dcmitype/StillImage" />
      </cc:Work>
    </rdf:RDF>
  </metadata>
  <sodipodi:namedview
     pagecolor="#ffffff"
     bordercolor="#666666"
     borderopacity="1"
     objecttolerance="10"
     gridtolerance="10"
     guidetolerance="10"
     inkscape:pageopacity="0"
     inkscape:pageshadow="2"
     inkscape:window-width="1920"
     inkscape:window-height="1016"
     id="namedview36"
     showgrid="false"
     inkscape:zoom="5.7224605"
     inkscape:cx="-13.6305"
     inkscape:cy="20.620501"
     inkscape:window-x="0"
     inkscape:window-y="27"
     inkscape:window-maximized="1"
     inkscape:current-layer="svg34" />
  <defs
     id="defs4">
    <style
       id="style2">.a{fill:#7d848f;stroke:#7d848f;stroke-width:0.5px;}</style>
  </defs>
  <g
     transform="translate(0.25 0.25)"
     id="g32"
     style="fill:#8c8c8f;fill-opacity:1;stroke:#8c8c8f;stroke-opacity:1">
    <g
       transform="translate(6.571 32.856)"
       id="g8"
       style="fill:#8c8c8f;fill-opacity:1;stroke:#8c8c8f;stroke-opacity:1">
      <path
         class="a"
         d="M82.628,400a2.628,2.628,0,1,0,2.628,2.629A2.631,2.631,0,0,0,82.628,400Zm0,3.943a1.314,1.314,0,1,1,1.314-1.314A1.316,1.316,0,0,1,82.628,403.943Z"
         transform="translate(-80 -400)"
         id="path6"
         style="fill:#8c8c8f;fill-opacity:1;stroke:#8c8c8f;stroke-opacity:1" />
    </g>
    <g
       transform="translate(28.913 32.856)"
       id="g12"
       style="fill:#8c8c8f;fill-opacity:1;stroke:#8c8c8f;stroke-opacity:1">
      <path
         class="a"
         d="M354.628,400a2.628,2.628,0,1,0,2.629,2.629A2.631,2.631,0,0,0,354.628,400Zm0,3.943a1.314,1.314,0,1,1,1.314-1.314A1.316,1.316,0,0,1,354.628,403.943Z"
         transform="translate(-352 -400)"
         id="path10"
         style="fill:#8c8c8f;fill-opacity:1;stroke:#8c8c8f;stroke-opacity:1" />
    </g>
    <g
       transform="translate(20.371 2.628)"
       id="g16"
       style="fill:#8c8c8f;fill-opacity:1;stroke:#8c8c8f;stroke-opacity:1">
      <path
         class="a"
         d="M250.628,37.257a1.314,1.314,0,1,1,1.314-1.314h1.314a2.626,2.626,0,0,0-1.971-2.535V32h-1.314v1.408a2.623,2.623,0,0,0,.657,5.164,1.314,1.314,0,1,1-1.314,1.314H248a2.626,2.626,0,0,0,1.971,2.535v1.408h1.314V42.421a2.623,2.623,0,0,0-.657-5.164Z"
         transform="translate(-248 -32)"
         id="path14"
         style="fill:#8c8c8f;fill-opacity:1;stroke:#8c8c8f;stroke-opacity:1" />
    </g>
    <path
       class="a"
       d="M38,24.614l-1.538-.256a16.537,16.537,0,0,0-9.369-8.326,8.632,8.632,0,0,0,.856-.53l-.762-1.07a7.245,7.245,0,1,1,1.7-1.7l1.07.762A8.543,8.543,0,1,0,18.088,15.52,16.478,16.478,0,0,0,7.634,23.034l-3.857.7a4.583,4.583,0,0,0-3.313,2.55h-.1l-.123.5c0,.02-.006.04-.011.06A4.565,4.565,0,0,0,0,28.261v9.2H4.33a5.252,5.252,0,0,0,9.74,0h12.6a5.252,5.252,0,0,0,9.74,0h4.33v-9.6A3.276,3.276,0,0,0,38,24.614ZM1.314,28.832a7.386,7.386,0,0,1,.1-1.233h.553a.658.658,0,0,1,.657.657v.657a.658.658,0,0,1-.657.657H1.314Zm2.628,6.653a5.288,5.288,0,0,0,.045.657H1.314V33.513H4.33A5.221,5.221,0,0,0,3.943,35.484ZM9.2,39.427a3.943,3.943,0,1,1,3.943-3.943A3.947,3.947,0,0,1,9.2,39.427Zm22.342,0a3.943,3.943,0,1,1,3.943-3.943A3.947,3.947,0,0,1,31.542,39.427Zm7.885-3.286H36.753a5.287,5.287,0,0,0,.045-.657,5.221,5.221,0,0,0-.387-1.971h3.016Zm0-3.943H35.639a5.243,5.243,0,0,0-8.194,0H24.313v1.314h2.358a5.221,5.221,0,0,0-.387,1.971,5.287,5.287,0,0,0,.045.657H14.411a5.288,5.288,0,0,0,.045-.657,5.221,5.221,0,0,0-.387-1.971H23V32.2H13.3a5.243,5.243,0,0,0-8.194,0H1.314V30.885h.657a1.974,1.974,0,0,0,1.971-1.971v-.657a1.973,1.973,0,0,0-1.957-1.97,3.273,3.273,0,0,1,2.027-1.258l3.918-.712.465.022.2-.346a15.146,15.146,0,0,1,11.41-7.459,8.4,8.4,0,0,0,5.088.287,15.191,15.191,0,0,1,10.329,8.418l.167.363.4.019,1.792.288a1.966,1.966,0,0,1,1.647,1.945Z"
       id="path18"
       style="fill:#8c8c8f;fill-opacity:1;stroke:#8c8c8f;stroke-opacity:1" />
    <g
       transform="translate(10.514 17.742)"
       id="g22"
       style="fill:#8c8c8f;fill-opacity:1;stroke:#8c8c8f;stroke-opacity:1">
      <path
         class="a"
         d="M150.22,221.619a13.371,13.371,0,0,0-22.114.478l-.106.164V225.2h22.342v-3.41Zm-18.277,2.266h-2.628v-1.233c.019-.028.039-.054.058-.081h1.913a.658.658,0,0,1,.657.657Zm9.2,0h-7.885v-.657a1.974,1.974,0,0,0-1.971-1.971h-.873a11.969,11.969,0,0,1,10.729-3.8Zm7.885,0h-6.571v-6.151a12.084,12.084,0,0,1,6.571,4.478Z"
         transform="translate(-128 -216)"
         id="path20"
         style="fill:#8c8c8f;fill-opacity:1;stroke:#8c8c8f;stroke-opacity:1" />
    </g>
    <g
       transform="translate(17.085 7.885)"
       id="g26"
       style="fill:#8c8c8f;fill-opacity:1;stroke:#8c8c8f;stroke-opacity:1">
      <rect
         class="a"
         width="1.314"
         height="1.314"
         id="rect24"
         style="fill:#8c8c8f;fill-opacity:1;stroke:#8c8c8f;stroke-opacity:1" />
    </g>
    <g
       transform="translate(27.599 7.885)"
       id="g30"
       style="fill:#8c8c8f;fill-opacity:1;stroke:#8c8c8f;stroke-opacity:1">
      <rect
         class="a"
         width="1.314"
         height="1.314"
         id="rect28"
         style="fill:#8c8c8f;fill-opacity:1;stroke:#8c8c8f;stroke-opacity:1" />
    </g>
  </g>
</svg>
