<svg xmlns="http://www.w3.org/2000/svg" width="33.057" height="33.058" viewBox="0 0 33.057 33.058"><defs><style>.a{fill:#e50019;stroke:#e50019;stroke-width:0.2px;}</style></defs><g transform="translate(0.1 0.1)"><g transform="translate(5.3 26.498)"><path class="a" d="M82.12,400a2.12,2.12,0,1,0,2.12,2.12A2.122,2.122,0,0,0,82.12,400Zm0,3.18a1.06,1.06,0,1,1,1.06-1.06A1.061,1.061,0,0,1,82.12,403.18Z" transform="translate(-80 -400)"/></g><g transform="translate(23.318 26.498)"><path class="a" d="M354.12,400a2.12,2.12,0,1,0,2.12,2.12A2.122,2.122,0,0,0,354.12,400Zm0,3.18a1.06,1.06,0,1,1,1.06-1.06A1.061,1.061,0,0,1,354.12,403.18Z" transform="translate(-352 -400)"/></g><g transform="translate(16.429 2.12)"><path class="a" d="M250.12,36.24a1.06,1.06,0,1,1,1.06-1.06h1.06a2.117,2.117,0,0,0-1.59-2.045V32h-1.06v1.135a2.115,2.115,0,0,0,.53,4.164,1.06,1.06,0,1,1-1.06,1.06H248a2.117,2.117,0,0,0,1.59,2.045v1.135h1.06V40.4a2.115,2.115,0,0,0-.53-4.164Z" transform="translate(-248 -32)"/></g><path class="a" d="M30.643,19.851,29.4,19.644a13.337,13.337,0,0,0-7.556-6.715,6.961,6.961,0,0,0,.69-.428l-.615-.863A5.843,5.843,0,1,1,23.3,10.263l.863.615a6.89,6.89,0,1,0-9.572,1.639,13.289,13.289,0,0,0-8.431,6.06l-3.11.565A3.7,3.7,0,0,0,.374,21.2H.3l-.1.4c0,.016,0,.032-.008.048A3.681,3.681,0,0,0,0,22.792v7.416H3.492a4.236,4.236,0,0,0,7.855,0H21.51a4.236,4.236,0,0,0,7.855,0h3.492V22.464A2.642,2.642,0,0,0,30.643,19.851ZM1.06,23.252a5.957,5.957,0,0,1,.084-.994H1.59a.53.53,0,0,1,.53.53v.53a.53.53,0,0,1-.53.53H1.06Zm2.12,5.365a4.265,4.265,0,0,0,.037.53H1.06v-2.12H3.492A4.211,4.211,0,0,0,3.18,28.618Zm4.24,3.18a3.18,3.18,0,1,1,3.18-3.18A3.183,3.183,0,0,1,7.419,31.8Zm18.019,0a3.18,3.18,0,1,1,3.18-3.18A3.183,3.183,0,0,1,25.438,31.8Zm6.36-2.65H29.641a4.264,4.264,0,0,0,.037-.53,4.211,4.211,0,0,0-.312-1.59H31.8Zm0-3.18H28.742a4.229,4.229,0,0,0-6.609,0H19.608v1.06h1.9a4.211,4.211,0,0,0-.312,1.59,4.264,4.264,0,0,0,.037.53H11.623a4.265,4.265,0,0,0,.037-.53,4.211,4.211,0,0,0-.312-1.59h7.2v-1.06H10.724a4.229,4.229,0,0,0-6.609,0H1.06v-1.06h.53a1.592,1.592,0,0,0,1.59-1.59v-.53A1.591,1.591,0,0,0,1.6,21.2a2.639,2.639,0,0,1,1.634-1.014l3.16-.574.375.017.162-.279a12.215,12.215,0,0,1,9.2-6.016,6.776,6.776,0,0,0,4.1.232,12.251,12.251,0,0,1,8.33,6.789l.135.293.322.015,1.445.233A1.585,1.585,0,0,1,31.8,22.464Z"/><g transform="translate(8.479 14.309)"><path class="a" d="M145.92,220.532a10.784,10.784,0,0,0-17.835.386l-.085.132v2.37h18.019v-2.75Zm-14.74,1.828h-2.12v-.994l.047-.066h1.543a.53.53,0,0,1,.53.53Zm7.419,0H132.24v-.53a1.592,1.592,0,0,0-1.59-1.59h-.7a9.653,9.653,0,0,1,8.653-3.064Zm6.36,0h-5.3V217.4a9.746,9.746,0,0,1,5.3,3.612Z" transform="translate(-128 -216)"/></g><g transform="translate(13.779 6.36)"><rect class="a" width="1.06" height="1.06"/></g><g transform="translate(22.258 6.36)"><rect class="a" width="1.06" height="1.06"/></g></g></svg>