<svg xmlns="http://www.w3.org/2000/svg" width="26.945" height="26.998" viewBox="0 0 26.945 26.998"><defs><style>.a{fill:#fff;}</style></defs><path class="a" d="M24.12,12.684H4.285L6.1,7.064a1.053,1.053,0,0,1,.99-.7h7.077a7.634,7.634,0,0,1,.058-2.105H7.09A3.161,3.161,0,0,0,4.109,6.381L1.941,13.091a3.159,3.159,0,0,0-1.609,2.75v8a3.158,3.158,0,0,0,6.315,0v-.526H20.962v.526a3.158,3.158,0,0,0,6.315,0v-8a3.161,3.161,0,0,0-3.158-3.158ZM4.543,23.841a1.053,1.053,0,0,1-2.105,0v-.707a3.143,3.143,0,0,0,1.053.181H4.543ZM24.12,24.893a1.054,1.054,0,0,1-1.053-1.052v-.526H24.12a3.141,3.141,0,0,0,1.052-.181v.707a1.054,1.054,0,0,1-1.052,1.052Zm1.052-4.736a1.054,1.054,0,0,1-1.052,1.053H3.49a1.054,1.054,0,0,1-1.053-1.053V15.841A1.054,1.054,0,0,1,3.49,14.789H24.12a1.054,1.054,0,0,1,1.052,1.052ZM9.858,17.525h7.894V19.63H9.858Zm13.209,0a1.053,1.053,0,1,1-1.052-1.052A1.052,1.052,0,0,1,23.067,17.525Zm-16.42,0A1.053,1.053,0,1,1,5.6,16.473,1.053,1.053,0,0,1,6.648,17.525Zm15.1-6.473a5.526,5.526,0,1,0-5.526-5.526A5.532,5.532,0,0,0,21.752,11.052Zm0-8.947a3.421,3.421,0,1,1-3.421,3.421,3.425,3.425,0,0,1,3.421-3.421ZM23.8,6.579H20.647V3.263h2.105V4.474H23.8Zm0,0" transform="translate(-0.332 0)"/></svg>