<svg xmlns="http://www.w3.org/2000/svg" width="38.88" height="21.269" viewBox="0 0 38.88 21.269"><defs><style>.a{fill:#fff;}</style></defs><g transform="translate(0 -110.7)"><g transform="translate(0 110.7)"><path class="a" d="M75.645,115.584a5.637,5.637,0,0,0-4.208-1.766h-4v-2.164a.957.957,0,0,0-.954-.954H47.424a.957.957,0,0,0-.954.954v3.325H42.754a.954.954,0,0,0,0,1.909h4.677a.957.957,0,0,0,.954-.954v-3.325H65.535v14.962H56.547a.6.6,0,0,0-.119.008,3.2,3.2,0,0,0-5.95.016.917.917,0,0,0-.207-.024H48.386v-3.333a.957.957,0,0,0-.954-.954H42.754a.954.954,0,0,0,0,1.909h3.715v3.325a.957.957,0,0,0,.954.954h2.9a3.205,3.205,0,0,0,6.252,0H68.017a3.205,3.205,0,0,0,6.252,0H76.4a.957.957,0,0,0,.954-.954v-7.93A7.235,7.235,0,0,0,75.645,115.584ZM53.453,130.068a1.3,1.3,0,1,1,1.3-1.3A1.3,1.3,0,0,1,53.453,130.068Zm17.69,0a1.3,1.3,0,1,1,1.3-1.3A1.3,1.3,0,0,1,71.143,130.068Zm4.3-2.5H74.11a3.2,3.2,0,0,0-5.934,0h-.732V115.727h4c2.506,0,4,1.821,4,4.868Z" transform="translate(-38.475 -110.7)"/><path class="a" d="M16.393,191.9a.954.954,0,0,0,.676,1.631.972.972,0,0,0,.676-.278l2.458-2.458.008-.008c.016-.024.04-.04.056-.064s.016-.024.024-.04a.139.139,0,0,1,.032-.04l.024-.048c.008-.016.016-.024.024-.04l.024-.048c.008-.016.016-.024.016-.04s.008-.032.016-.048.008-.032.016-.04a.1.1,0,0,0,.008-.048c0-.016.008-.032.008-.048s.008-.032.008-.056.008-.024.008-.04a.766.766,0,0,0,0-.191.072.072,0,0,0-.008-.04c0-.016-.008-.032-.008-.056s-.008-.032-.008-.048-.008-.032-.008-.048-.008-.032-.016-.04-.008-.032-.016-.048-.016-.024-.016-.04l-.024-.048c-.008-.016-.016-.024-.024-.04l-.024-.048a.14.14,0,0,0-.032-.04c-.008-.016-.016-.024-.024-.04s-.04-.04-.056-.064l-.008-.008-2.339-2.339a.956.956,0,0,0-1.352,1.352l.708.708H.954a.954.954,0,1,0,0,1.909H17.213Z" transform="translate(0 -180.724)"/></g></g></svg>