<svg xmlns="http://www.w3.org/2000/svg" width="30.857" height="30.857" viewBox="0 0 30.857 30.857"><defs><style>.a{fill:#e50019;}</style></defs><path class="a" d="M46.177,244.616h5.8a2.712,2.712,0,1,0,0-1.808h-5.8a2.712,2.712,0,1,0-3.461,3.461v5.8a2.725,2.725,0,0,0-1.653,1.653h-5.8a2.712,2.712,0,1,0,0,1.808h5.8a2.712,2.712,0,1,0,3.46-3.461v-5.8A2.725,2.725,0,0,0,46.177,244.616Zm8.352-1.808a.9.9,0,1,1-.9.9A.905.905,0,0,1,54.529,242.808Zm-10.909,0a.9.9,0,1,1-.9.9A.905.905,0,0,1,43.621,242.808ZM32.712,255.525a.9.9,0,1,1,.9-.9A.905.905,0,0,1,32.712,255.525Zm10.909,0a.9.9,0,1,1,.9-.9A.905.905,0,0,1,43.621,255.525Zm0,0" transform="translate(-28.192 -226.475)"/><path class="a" d="M61.808,241.9a.9.9,0,1,1-.9-.9A.9.9,0,0,1,61.808,241.9Zm0,0" transform="translate(-56.384 -226.475)"/><path class="a" d="M0,185.52A4.49,4.49,0,0,0,.805,188.1l3.715,5.41,3.711-5.4A4.52,4.52,0,1,0,0,185.52Zm4.52-2.712a2.713,2.713,0,0,1,2.224,4.264L4.52,190.312l-2.228-3.244a2.712,2.712,0,0,1,2.228-4.26Zm0,0" transform="translate(0 -170.091)"/><path class="a" d="M423.808,60.9a.9.9,0,1,1-.9-.9A.9.9,0,0,1,423.808,60.9Zm0,0" transform="translate(-396.567 -56.384)"/><path class="a" d="M366.52,0a4.52,4.52,0,0,0-3.715,7.1l3.715,5.41,3.711-5.4A4.521,4.521,0,0,0,366.52,0Zm2.224,6.073L366.52,9.312l-2.228-3.244a2.712,2.712,0,1,1,4.452,0Zm0,0" transform="translate(-340.183)"/></svg>