<?xml version="1.0" encoding="UTF-8" standalone="no"?>
<svg
   xmlns:dc="http://purl.org/dc/elements/1.1/"
   xmlns:cc="http://creativecommons.org/ns#"
   xmlns:rdf="http://www.w3.org/1999/02/22-rdf-syntax-ns#"
   xmlns:svg="http://www.w3.org/2000/svg"
   xmlns="http://www.w3.org/2000/svg"
   xmlns:sodipodi="http://sodipodi.sourceforge.net/DTD/sodipodi-0.dtd"
   xmlns:inkscape="http://www.inkscape.org/namespaces/inkscape"
   width="43.5"
   height="43.5"
   viewBox="0 0 43.5 43.5"
   version="1.1"
   id="svg16"
   sodipodi:docname="gps.svg"
   inkscape:version="0.92.1 r15371">
  <metadata
     id="metadata20">
    <rdf:RDF>
      <cc:Work
         rdf:about="">
        <dc:format>image/svg+xml</dc:format>
        <dc:type
           rdf:resource="http://purl.org/dc/dcmitype/StillImage" />
      </cc:Work>
    </rdf:RDF>
  </metadata>
  <sodipodi:namedview
     pagecolor="#ffffff"
     bordercolor="#666666"
     borderopacity="1"
     objecttolerance="10"
     gridtolerance="10"
     guidetolerance="10"
     inkscape:pageopacity="0"
     inkscape:pageshadow="2"
     inkscape:window-width="1920"
     inkscape:window-height="1016"
     id="namedview18"
     showgrid="false"
     inkscape:zoom="5.4252874"
     inkscape:cx="21.75"
     inkscape:cy="21.75"
     inkscape:window-x="0"
     inkscape:window-y="27"
     inkscape:window-maximized="1"
     inkscape:current-layer="svg16" />
  <defs
     id="defs4">
    <style
       id="style2">.a{fill:#7d848f;}</style>
  </defs>
  <path
     class="a"
     d="M52.805,246.1h8.17a3.823,3.823,0,1,0,0-2.549h-8.17a3.823,3.823,0,1,0-4.879,4.879v8.17a3.841,3.841,0,0,0-2.33,2.33h-8.17a3.823,3.823,0,1,0,0,2.549H45.6a3.823,3.823,0,1,0,4.878-4.879v-8.17A3.841,3.841,0,0,0,52.805,246.1Zm11.774-2.549a1.274,1.274,0,1,1-1.274,1.274A1.276,1.276,0,0,1,64.579,243.549Zm-15.378,0a1.274,1.274,0,1,1-1.274,1.274A1.276,1.276,0,0,1,49.2,243.549ZM33.823,261.476A1.274,1.274,0,1,1,35.1,260.2,1.276,1.276,0,0,1,33.823,261.476Zm15.378,0a1.274,1.274,0,1,1,1.274-1.274A1.276,1.276,0,0,1,49.2,261.476Zm0,0"
     transform="translate(-27.451 -220.524)"
     id="path6"
     style="fill:#8c8c8c;fill-opacity:1;stroke:none;stroke-opacity:1" />
  <path
     class="a"
     d="M62.549,242.274A1.274,1.274,0,1,1,61.274,241,1.274,1.274,0,0,1,62.549,242.274Zm0,0"
     transform="translate(-54.902 -220.524)"
     id="path8"
     style="fill:#8c8c8c;fill-opacity:1;stroke:none;stroke-opacity:1" />
  <path
     class="a"
     d="M0,187.372A6.329,6.329,0,0,0,1.135,191l5.237,7.626L11.6,191.01A6.372,6.372,0,1,0,0,187.372Zm6.372-3.823a3.824,3.824,0,0,1,3.136,6.012l-3.136,4.566-3.14-4.573a3.824,3.824,0,0,1,3.14-6Zm0,0"
     transform="translate(0 -165.622)"
     id="path10"
     style="fill:#8c8c8c;fill-opacity:1;stroke:none;stroke-opacity:1" />
  <path
     class="a"
     d="M424.549,61.274A1.274,1.274,0,1,1,423.274,60,1.274,1.274,0,0,1,424.549,61.274Zm0,0"
     transform="translate(-386.146 -54.902)"
     id="path12"
     style="fill:#8c8c8c;fill-opacity:1;stroke:none;stroke-opacity:1" />
  <path
     class="a"
     d="M368.372,0a6.373,6.373,0,0,0-5.237,10l5.237,7.626L373.6,10.01A6.373,6.373,0,0,0,368.372,0Zm3.136,8.56-3.136,4.566-3.14-4.573a3.823,3.823,0,1,1,6.276.007Zm0,0"
     transform="translate(-331.244)"
     id="path14"
     style="fill:#8c8c8c;fill-opacity:1;stroke:none;stroke-opacity:1" />
</svg>
